<svg xmlns="http://www.w3.org/2000/svg" height="48" viewBox="0 -960 960 960" width="48"><path d="M282.5-84v-247.5H211q-35.167 0-61.083-23.893Q124-379.287 124-414.42q0-26.651 13.25-49.865 13.25-23.215 37.885-33.762L454.5-617.5v-43q-36.5-9.5-60-39.557-23.5-30.057-23.5-67.792Q371-813.5 403.511-845q32.511-31.5 77.813-31.5 45.509 0 77.843 31.562Q591.5-813.375 591.5-768H534q0-21.5-15.659-36.25T481.447-819Q460-819 444.25-804.25q-15.75 14.75-15.75 36.048 0 23.298 15.962 39Q460.425-713.5 483.5-713.5q11.725 0 20.112 7.888Q512-697.725 512-686v68.5l273.365 119.453Q810.5-487.5 823.5-464.311q13 23.188 13 49.819 0 35.492-25.917 59.242-25.916 23.75-61.083 23.75H678V-84H282.5ZM211-389h71.5v-50.5H678v50.5h71.549q11.389 0 20.42-7.5Q779-404 779-415.308q0-9.692-5-16.942t-13.427-11.217L483.5-568.5 199.973-443.484Q192-439.5 186.75-432.25q-5.25 7.25-5.25 15.942 0 11.308 8.781 19.308T211-389Z"/></svg>